<svg width="48" height="24" viewBox="0 0 48 24" fill="none" xmlns="http://www.w3.org/2000/svg">
    <path d="M12 24C13.5759 24 15.1363 23.6896 16.5922 23.0866C18.0481 22.4835 19.371 21.5996 20.4853 20.4853C21.5996 19.371 22.4835 18.0481 23.0866 16.5922C23.6896 15.1363 24 13.5759 24 12C24 10.4241 23.6896 8.86371 23.0866 7.4078C22.4835 5.95189 21.5996 4.62902 20.4853 3.51472C19.371 2.40042 18.0481 1.5165 16.5922 0.913445C15.1363 0.310389 13.5759 -6.88831e-08 12 0L12 12L12 24Z" fill="black"/>
    <path d="M0 12C0 5.37258 5.37258 0 12 0V24C5.37258 24 0 18.6274 0 12Z" fill="black"/>
    <path d="M24 24H48L24 0V24Z" fill="black"/>
    <path d="M48 0L24 -2.09815e-06L48 24L48 0Z" fill="black"/>
</svg>
